<svg class="svg-icon" style="width: 1em; height: 1em;vertical-align: middle;fill: currentColor;overflow: hidden;" viewBox="0 0 1024 1024" version="1.1" xmlns="http://www.w3.org/2000/svg"><path d="M512 554.666667c-117.333333 0-213.333333-96-213.333333-213.333334S394.666667 128 512 128s213.333333 96 213.333333 213.333333-96 213.333333-213.333333 213.333334z m0-384c-93.866667 0-170.666667 76.8-170.666667 170.666666s76.8 170.666667 170.666667 170.666667 170.666667-76.8 170.666667-170.666667-76.8-170.666667-170.666667-170.666666z"  /><path d="M832 885.333333c-12.8 0-21.333333-8.533333-21.333333-21.333333 0-164.266667-134.4-298.666667-298.666667-298.666667s-298.666667 134.4-298.666667 298.666667c0 12.8-8.533333 21.333333-21.333333 21.333333s-21.333333-8.533333-21.333333-21.333333c0-187.733333 153.6-341.333333 341.333333-341.333333s341.333333 153.6 341.333333 341.333333c0 12.8-8.533333 21.333333-21.333333 21.333333z"  /></svg>